# xmcd
#
# Track frame offsets:
#	150
#	15542
#	36605
#	48990
#	63530
#	77930
#	105177
#	125192
#	140237
#	155290
#	171377
#
# Disc length: 2552 seconds
#
# Revision: 3
# Processed by: cddbd v1.4PL0 Copyright (c) Steve Scherf et al.
# Submitted via: audiograbber 1.81.03
#
DISCID=9c09f60b
DTITLE=SmokeHouse - Cadillac In The Swamp
DYEAR=1995
DGENRE=Blues
TTITLE0=Nice 'N' Round (355lbs.)
TTITLE1=Hoodoo Woman Blues
TTITLE2=Mr. So And So
TTITLE3=American Dream
TTITLE4=Peepin' Through The Knothole
TTITLE5=Cadillac In The Swamp
TTITLE6=Hoodoo You
TTITLE7=Low Down Rider
TTITLE8=Mississippi Quickie
TTITLE9=Crack Smokin'  Blues
TTITLE10=Martin Luther The King
EXTD=
EXTT0=
EXTT1=
EXTT2=
EXTT3=
EXTT4=
EXTT5=
EXTT6=
EXTT7=
EXTT8=
EXTT9=
EXTT10=
PLAYORDER=
